<?xml version="1.0" encoding="UTF-8"?>
<svg id="BFH3" xmlns="http://www.w3.org/2000/svg" xmlns:xlink="http://www.w3.org/1999/xlink" viewBox="0 0 200 48">
  <defs>
    <style>
      .cls-1, .cls-2, .cls-3, .cls-4, .cls-5 {
        fill: none;
      }

      .Anon_ZexWsDYsUtE_ {
        fill: #f4364c;
      }

      .Anon_ZexWsDYsUtE_, .cls-2, .cls-3, .cls-4, .Anon_DwnQ8uzdkn8_, .Anon_PQjveHfx_NU_, .cls-5, .Anon_4qvOlGPbiK0_, .Anon_slWasht_zk_, .Anon_PPUFV16h_GA_ {
        stroke: #000;
      }

      .Anon_ZexWsDYsUtE_, .cls-2, .Anon_DwnQ8uzdkn8_, .Anon_PQjveHfx_NU_, .Anon_4qvOlGPbiK0_, .Anon_slWasht_zk_, .Anon_PPUFV16h_GA_ {
        stroke-miterlimit: 10;
      }

      .cls-2, .cls-3, .cls-4 {
        stroke-linecap: round;
      }

      .cls-3, .cls-5 {
        stroke-linejoin: round;
      }

      .Anon_DwnQ8uzdkn8_ {
        fill: #ff8f1c;
      }

      .Anon_PQjveHfx_NU_, .cls-6 {
        fill: #fff;
      }

      .Anon_4qvOlGPbiK0_ {
        fill: #64a70b;
      }

      .Anon_slWasht_zk_ {
        fill: #9f5cc0;
      }

      .Anon_PPUFV16h_GA_ {
        fill: #418fde;
      }
    </style>
    <symbol id="Logomark_Color" data-name="Logomark Color" viewBox="0 0 48 48">
      <g>
        <g>
          <path class="cls-6" d="M24,47.5C11.04,47.5.5,36.96.5,24S11.04.5,24,.5s23.5,10.54,23.5,23.5-10.54,23.5-23.5,23.5Z"/>
          <path d="M24,1c12.68,0,23,10.32,23,23s-10.32,23-23,23S1,36.68,1,24,11.32,1,24,1M24,0C10.75,0,0,10.75,0,24s10.75,24,24,24,24-10.75,24-24S37.25,0,24,0h0Z"/>
        </g>
        <g id="Head">
          <path class="Anon_PQjveHfx_NU_" d="M24,19c-4.42,0-8,3.58-8,8v5c0,4.42,3.58,8,8,8s8-3.58,8-8v-5c0-4.42-3.58-8-8-8Z"/>
          <g id="Mouth">
            <path class="cls-3" d="M26.12,36.12c-1.17,1.17-3.07,1.17-4.24,0"/>
            <line class="cls-3" x1="21.88" y1="36.12" x2="22.59" y2="35.41"/>
          </g>
          <g id="Right_eye">
            <line class="cls-4" x1="25.59" y1="32.41" x2="28.41" y2="29.59"/>
            <line class="cls-4" x1="25.59" y1="29.59" x2="28.41" y2="32.41"/>
          </g>
          <circle id="Left_eye" class="cls-5" cx="21" cy="31" r=".5"/>
        </g>
        <g id="Arrow_head">
          <line class="cls-2" x1="24" y1="24" x2="42.84" y2="18.95"/>
          <line class="cls-2" x1="40.84" y1="22.42" x2="42.84" y2="18.95"/>
          <line class="cls-2" x1="39.37" y1="16.95" x2="42.84" y2="18.95"/>
        </g>
        <g id="Hat">
          <path class="Anon_ZexWsDYsUtE_" d="M8.79,19.65c2.77.67,7.21,2.77,7.21,9.35l8-5,8,3c0-10.41-14.82-14.98-23.53-9.16-.73.49-.53,1.61.32,1.81Z"/>
          <path class="Anon_4qvOlGPbiK0_" d="M26.75,8.02c-3.64,3.15-10.75,11.14-10.75,20.98l8-5,8,3c0-4.67-3.91-11.58-3.61-18.18.04-.87-.98-1.37-1.64-.8Z"/>
          <path class="Anon_PPUFV16h_GA_" d="M16,29c0-12.56,13.03-16.35,18.43-17.38.84-.16,1.49.74,1.05,1.48-1.4,2.38-3.48,7.08-3.48,13.9l-8-3-8,5Z"/>
          <path class="Anon_slWasht_zk_" d="M32,27c0-10.25-13.04-14.14-18.43-15.3-.84-.18-1.49.71-1.08,1.46,1.4,2.56,3.51,7.76,3.51,15.84l8-5,8,3Z"/>
          <path class="Anon_DwnQ8uzdkn8_" d="M32.57,21c-.35,1.77-.57,3.77-.57,6-2.08-.25-4.82-.38-8,0-3.29.4-6,1.23-8,2,0-.2,0-.4-.01-.6-.11-2.39-.82-4.14-1.8-5.44,2.61-.82,5.92-1.61,9.81-1.96,3.26-.3,6.16-.22,8.57,0Z"/>
          <circle class="Anon_PPUFV16h_GA_" cx="6.61" cy="19.34" r="1.5"/>
          <circle class="Anon_ZexWsDYsUtE_" cx="36.73" cy="11.27" r="1.5"/>
          <circle class="Anon_slWasht_zk_" cx="28.66" cy="6.61" r="1.5"/>
          <circle class="Anon_4qvOlGPbiK0_" cx="11.27" cy="11.27" r="1.5"/>
        </g>
        <g id="Arrow_tail">
          <line class="cls-2" x1="5.16" y1="29.05" x2="24" y2="24"/>
          <line class="cls-2" x1="6.58" y1="26.6" x2="7.61" y2="30.46"/>
          <line class="cls-2" x1="8.51" y1="26.08" x2="9.55" y2="29.94"/>
          <line class="cls-2" x1="10.44" y1="25.56" x2="11.48" y2="29.43"/>
        </g>
      </g>
    </symbol>
  </defs>
  <g>
    <rect class="cls-1" x="56" y="8" width="148" height="16"/>
    <path d="M64.88,23.08c-2.4,0-4.94-.1-6.74-.21l-.25-13.68c1.66-.11,4.29-.23,6.55-.23,3.17,0,4.99,1.26,4.99,3.82,0,1.65-.81,2.54-2.82,3.22,2.01.54,3.03,1.61,3.03,3.26,0,2.47-1.7,3.82-4.76,3.82ZM64.02,11.45c-.88,0-2.03.05-2.89.11l.07,3.21c.95.04,2.05.04,2.96.04,1.23,0,2.07-.54,2.07-1.72,0-1.07-.75-1.63-2.21-1.63ZM64.2,17.25c-.96-.02-2-.05-3-.04l.09,3.36c1.07.07,2.21.16,3.14.16,1.26,0,1.93-.61,1.93-1.72,0-1.19-.88-1.73-2.15-1.77Z"/>
    <path d="M75.01,22.99l-2.93-.09.12-13.77,2.96.07-.16,13.79Z"/>
    <path d="M81.91,23.25c-2.93,0-4.85-1.96-4.85-4.85s2.03-4.96,4.85-4.96c2.96,0,4.85,2.07,4.85,5.03s-2.01,4.78-4.85,4.78ZM81.93,16.19c-1.17,0-1.96.88-1.96,2.22s.75,2.22,1.96,2.22,1.91-.82,1.91-2.24c0-1.26-.72-2.21-1.91-2.21Z"/>
    <path d="M92.92,23.25c-2.93,0-4.85-1.96-4.85-4.85s2.03-4.96,4.85-4.96c2.96,0,4.85,2.07,4.85,5.03s-2.01,4.78-4.85,4.78ZM92.93,16.19c-1.17,0-1.96.88-1.96,2.22s.75,2.22,1.96,2.22,1.91-.82,1.91-2.24c0-1.26-.72-2.21-1.91-2.21Z"/>
    <path d="M116.2,22.76l-2.85-.05c.09-1.31.17-3.28.17-4.47,0-1.37-.56-2.16-1.77-2.16-.95,0-1.84.77-2.28,1.94l-.07,4.96h-2.86l.05-4.85c.02-1.03-.49-1.79-1.61-1.79-.98,0-1.8.81-2.33,1.88l-.11,4.68h-2.82l.05-10.25h2.79v2.85c.77-1.12,1.91-1.82,3.28-1.82s2.47.65,3.03,1.79c.77-1.16,1.93-2,3.5-2,2.65,0,4.01,1.56,4.01,4.2,0,1.52-.11,3.68-.19,5.08Z"/>
    <path d="M120.09,12.15c-1,0-1.65-.65-1.65-1.54s.63-1.54,1.65-1.54,1.66.65,1.66,1.54-.68,1.54-1.66,1.54ZM118.97,22.92l-.25-9.07h2.94l.21,9-2.91.07Z"/>
    <path d="M134.07,22.83l-2.82-.09c.05-.63.1-3.42.1-4.4,0-1.38-.65-2.05-1.72-2.05s-1.89.89-2.4,2.12l.07,4.59-2.82.12-.12-10.07,2.79-.07.04,2.38c.86-1.14,1.91-1.8,3.28-1.8,2.54,0,3.82,1.72,3.82,4.36,0,1.51-.1,3.56-.21,4.9Z"/>
    <path d="M146.13,21.05c-.04,3.54-1.38,5.76-5.06,5.76-1.82,0-3.21-.47-4.26-1.42l1.49-1.93c.65.54,1.47.93,2.49.93,1.54,0,2.45-1.02,2.45-2.98-.72.79-1.77,1.23-2.91,1.23-2.5,0-4.22-1.79-4.22-4.31s1.75-4.64,4.41-4.64c1.14,0,2.15.49,2.8,1.31l.02-1.79,2.87.07-.09,7.76ZM141.17,16.18c-1.26,0-1.98.93-1.98,2.1,0,1.33.91,2.03,2.05,2.03,1.31,0,2.07-.93,2.07-2.1s-.84-2.03-2.14-2.03Z"/>
    <path d="M162.58,11.99l-6.08-.14-.05,3.5,4.87.14-.03,2.77-4.83-.18-.09,4.87-3.12-.04.09-13.86,9.3.14-.05,2.79Z"/>
    <path d="M168.12,23.25c-2.93,0-4.85-1.96-4.85-4.85s2.03-4.96,4.85-4.96c2.96,0,4.85,2.07,4.85,5.03s-2.01,4.78-4.85,4.78ZM168.14,16.19c-1.17,0-1.96.88-1.96,2.22s.75,2.22,1.96,2.22,1.91-.82,1.91-2.24c0-1.26-.72-2.21-1.91-2.21Z"/>
    <path d="M179.12,23.25c-2.93,0-4.85-1.96-4.85-4.85s2.03-4.96,4.85-4.96c2.96,0,4.85,2.07,4.85,5.03s-2.01,4.78-4.85,4.78ZM179.14,16.19c-1.17,0-1.96.88-1.96,2.22s.75,2.22,1.96,2.22,1.91-.82,1.91-2.24c0-1.26-.72-2.21-1.91-2.21Z"/>
    <path d="M188.87,22.99l-2.93-.09.12-13.77,2.96.07-.16,13.79Z"/>
    <path d="M195.19,23.36c-1.8,0-3.26-.7-4.26-2.01l1.75-1.52c.74.89,1.61,1.37,2.66,1.37.67,0,1.12-.26,1.12-.81,0-1.33-5.27.02-5.27-3.8,0-1.86,1.42-3.19,3.84-3.19,1.72,0,3.17.77,4.1,1.96l-1.7,1.54c-.7-.81-1.56-1.21-2.5-1.21-.72,0-1.1.3-1.1.75,0,1.47,5.38.02,5.38,3.82,0,1.95-1.51,3.1-4.01,3.1Z"/>
  </g>
  <g>
    <rect class="cls-1" x="56" y="32" width="148" height="8"/>
    <path d="M61.71,39.44l-.04-2.52-3.02.05.04,2.53h-1.53s-.2-6.86-.2-6.86h1.58l.08,2.88,3.02-.05-.07-2.89h1.55s.17,6.83.17,6.83l-1.56.03Z"/>
    <path d="M70.31,39.59l-.55-1.55-2.79.09-.52,1.45-1.6-.21,2.7-6.82h1.73l2.78,6.87-1.74.18ZM68.36,34.06l-.96,2.77,1.9-.08-.94-2.69Z"/>
    <path d="M75.74,39.75c-1.38,0-2.36-.58-2.85-1.74l1.16-.67c.39.79.98,1.23,1.84,1.23.7,0,1.1-.33,1.1-.9,0-1.53-3.85-.24-3.85-3.07,0-1.26.95-2.15,2.62-2.15,1.24,0,2.21.6,2.68,1.61l-1.16.6c-.37-.64-.94-1.01-1.64-1.01s-1.02.35-1.02.9c0,1.44,3.88.04,3.88,3.08,0,1.28-.91,2.13-2.77,2.13Z"/>
    <path d="M85.18,39.44l-.04-2.52-3.02.05.04,2.53h-1.53s-.2-6.86-.2-6.86h1.58l.08,2.88,3.02-.05-.07-2.89h1.55s.17,6.83.17,6.83l-1.56.03Z"/>
    <path d="M97.53,39.44l-.04-2.52-3.02.05.04,2.53h-1.53s-.2-6.86-.2-6.86h1.58l.08,2.88,3.02-.05-.07-2.89h1.55s.17,6.83.17,6.83l-1.56.03Z"/>
    <path d="M104.57,39.71c-2.12,0-3.51-1.49-3.51-3.71,0-2.08,1.45-3.64,3.57-3.64s3.53,1.44,3.53,3.6c0,2.29-1.35,3.75-3.59,3.75ZM104.61,33.81c-1.24,0-1.98.95-1.98,2.25s.73,2.22,1.97,2.22,1.98-.98,1.98-2.23c0-1.32-.75-2.24-1.97-2.24Z"/>
    <path d="M116.54,36.31c-.03,2.08-.99,3.43-3.29,3.43-2.15,0-3.19-1.24-3.21-3.5l-.04-3.61,1.59-.04.04,3.55c.02,1.35.5,2.08,1.61,2.08,1.21,0,1.73-.72,1.74-2.01l.03-3.63,1.58.03-.04,3.71Z"/>
    <path d="M121.04,39.75c-1.38,0-2.36-.58-2.85-1.74l1.16-.67c.39.79.98,1.23,1.84,1.23.7,0,1.1-.33,1.1-.9,0-1.53-3.85-.24-3.85-3.07,0-1.26.95-2.15,2.62-2.15,1.24,0,2.21.6,2.68,1.61l-1.16.6c-.37-.64-.94-1.01-1.64-1.01s-1.02.35-1.02.9c0,1.44,3.88.04,3.88,3.08,0,1.28-.91,2.13-2.77,2.13Z"/>
    <path d="M125.94,39.51l-.26-6.77,4.62-.14.04,1.33-3.05.09.05,1.49,2.77-.05.06,1.3-2.76.04.05,1.46,2.89-.13.04,1.23-4.45.17Z"/>
    <path d="M140.77,39.44l-.04-2.52-3.02.05.04,2.53h-1.53s-.2-6.86-.2-6.86h1.58l.08,2.88,3.02-.05-.07-2.89h1.55s.17,6.83.17,6.83l-1.56.03Z"/>
    <path d="M149.36,39.59l-.55-1.55-2.79.09-.52,1.45-1.6-.21,2.7-6.82h1.73l2.78,6.87-1.74.18ZM147.42,34.06l-.96,2.77,1.9-.08-.94-2.69Z"/>
    <path d="M156.84,39.59l-1.57-2.38c-.33,0-.76,0-1.08-.02l.05,2.31h-1.53s-.18-6.92-.18-6.92c.79-.04,1.83-.06,2.88-.06,1.81,0,2.71.93,2.71,2.37,0,1.02-.51,1.65-1.32,1.99l1.66,2.37-1.62.33ZM155.32,33.73c-.37,0-.84.03-1.25.04l.08,2.14c.43.02.84.04,1.24.04.71,0,1.13-.45,1.13-1.07,0-.66-.43-1.15-1.2-1.15Z"/>
    <path d="M164.62,39.59l-1.57-2.38c-.33,0-.76,0-1.08-.02l.05,2.31h-1.53s-.18-6.92-.18-6.92c.79-.04,1.83-.06,2.88-.06,1.81,0,2.71.93,2.71,2.37,0,1.02-.51,1.65-1.32,1.99l1.66,2.37-1.62.33ZM163.1,33.73c-.37,0-.84.03-1.25.04l.08,2.14c.43.02.84.04,1.24.04.71,0,1.13-.45,1.13-1.07,0-.66-.43-1.15-1.2-1.15Z"/>
    <path d="M169.8,39.47l-1.52-.04.03-6.86h1.57l-.07,6.89Z"/>
    <path d="M172.65,39.51l-.26-6.77,4.62-.14.04,1.33-3.05.09.05,1.49,2.77-.05.06,1.3-2.76.04.05,1.46,2.89-.13.04,1.23-4.45.17Z"/>
    <path d="M183.42,39.59l-1.57-2.38c-.33,0-.76,0-1.08-.02l.05,2.31h-1.53s-.18-6.92-.18-6.92c.79-.04,1.83-.06,2.88-.06,1.81,0,2.71.93,2.71,2.37,0,1.02-.51,1.65-1.32,1.99l1.66,2.37-1.62.33ZM181.9,33.73c-.37,0-.84.03-1.25.04l.08,2.14c.43.02.84.04,1.24.04.71,0,1.13-.45,1.13-1.07,0-.66-.43-1.15-1.2-1.15Z"/>
    <path d="M189.16,39.75c-1.38,0-2.36-.58-2.85-1.74l1.16-.67c.39.79.98,1.23,1.84,1.23.7,0,1.1-.33,1.1-.9,0-1.53-3.85-.24-3.85-3.07,0-1.26.95-2.15,2.62-2.15,1.24,0,2.21.6,2.68,1.61l-1.16.6c-.37-.64-.94-1.01-1.64-1.01s-1.02.35-1.02.9c0,1.44,3.88.04,3.88,3.08,0,1.28-.91,2.13-2.77,2.13Z"/>
  </g>
  <use width="48" height="48" xlink:href="#Logomark_Color"/>
</svg>